# xmcd CD database file generated by Grip 3.3.1
# 
# Track frame offsets:
#       150
#       15195
#       42735
#       59350
#       78852
#       97720
#       119840
#       150820
#       172830
#       191407
#       212860
#       230287
#       243640
#       260765
#       280325
# 
# Disc length: 4003 seconds
# 
# Revision: 6
# Processed by: cddbd v1.5.2PL0 Copyright (c) Steve Scherf et al.
# Submitted via: Grip 3.3.1
# 
DISCID=c00fa10f
DTITLE=Fleetwood Mac - Greatest Hits Live
DYEAR=1991
DGENRE=Rock
TTITLE0=Oh Well
TTITLE1=Black Magic Woman
TTITLE2=World in Harmony
TTITLE3=Like It This way
TTITLE4=Only You
TTITLE5=Jumpin' At Shadows
TTITLE6=Can't Hold On
TTITLE7=Keep A-Knocking
TTITLE8=Red Hot Mama
TTITLE9=Madison Blues
TTITLE10=Stranger Blues
TTITLE11=Great Balls Of Fire
TTITLE12=Got To Move
TTITLE13=Oh Baby
TTITLE14=Teenage Darling
EXTD=YEAR: 1991
EXTT0=
EXTT1=
EXTT2=
EXTT3=
EXTT4=
EXTT5=
EXTT6=
EXTT7=
EXTT8=
EXTT9=
EXTT10=
EXTT11=
EXTT12=
EXTT13=
EXTT14=
PLAYORDER=
